<svg height="500" width="500" xmlns="http://www.w3.org/2000/svg"><path clip-rule="evenodd" d="M445.839 250.453c0-54.237-39.345-99.301-90.945-107.935-1.543-61.327-51.788-110.569-113.48-110.569-62.688 0-113.568 50.879-113.568 113.568V286.34c0 25.076-20.354 45.431-45.427 45.431h-4.543c-12.537 0-22.713 10.175-22.713 22.711s10.177 22.716 22.713 22.716h4.543c50.151 0 90.855-40.708 90.855-90.857V145.518c0-37.611 30.525-68.142 68.14-68.142 37.246 0 67.592 29.891 68.142 67.049-47.063 12.173-81.769 55.059-81.769 106.028v108.122c0 60.413 48.791 109.477 109.026 109.477 60.233 0 109.026-49.063 109.026-109.477V250.453zm-90.858-45.879v54.512c0 9.991-8.181 18.172-18.169 18.172-9.99 0-18.172-8.181-18.172-18.172v-54.512c0-9.992 8.182-18.173 18.172-18.173 9.989 0 18.169 8.181 18.169 18.173z" fill="#010101" fill-rule="evenodd"/></svg>